<svg width="58" height="66" viewBox="0 0 58 66" fill="none" xmlns="http://www.w3.org/2000/svg">
<path fill-rule="evenodd" clip-rule="evenodd" d="M26.0626 0.916626C22.0529 0.916968 18.1014 1.8762 14.5377 3.7143C10.9741 5.5524 7.90171 8.21607 5.57688 11.4831C3.25205 14.7501 1.74221 18.5257 1.17332 22.4948C0.604426 26.464 0.992981 30.5117 2.30657 34.3002C3.62015 38.0887 5.82068 41.5081 8.72455 44.2731C11.6284 47.0382 15.1514 49.0688 18.9997 50.1954C22.8479 51.322 26.9097 51.512 30.8463 50.7495C34.7829 49.987 38.4801 48.2942 41.6294 45.8123L52.4332 56.6161C52.9912 57.155 53.7385 57.4532 54.5141 57.4464C55.2898 57.4397 56.0318 57.1286 56.5803 56.5801C57.1288 56.0316 57.4399 55.2896 57.4466 54.5139C57.4534 53.7383 57.1552 52.991 56.6163 52.433L45.8125 41.6292C48.7353 37.9213 50.5552 33.4654 51.0638 28.7715C51.5725 24.0776 50.7493 19.3353 48.6886 15.0873C46.6279 10.8394 43.4129 7.25739 39.4115 4.75131C35.4101 2.24523 30.784 0.916309 26.0626 0.916626ZM6.83347 26.0625C6.83347 20.9626 8.8594 16.0716 12.4656 12.4654C16.0717 8.85922 20.9627 6.83329 26.0626 6.83329C31.1625 6.83329 36.0535 8.85922 39.6597 12.4654C43.2659 16.0716 45.2918 20.9626 45.2918 26.0625C45.2918 31.1624 43.2659 36.0534 39.6597 39.6595C36.0535 43.2657 31.1625 45.2916 26.0626 45.2916C20.9627 45.2916 16.0717 43.2657 12.4656 39.6595C8.8594 36.0534 6.83347 31.1624 6.83347 26.0625Z" fill="#5C5B5B"/>
</svg>
